<svg xmlns="http://www.w3.org/2000/svg" viewBox="514.42 124.025 135.59 135.59">
<g fill="#00ffb7" stroke="none" fill-rule="evenodd">
<path d="M596.272,177.098 C597.145,176.987 618.489,177.321 619.534,177.588 C619.534,177.588 622.211,190.206 621.524,190.828 C621.188,190.85 608.173,189.712 607.762,190.052 C607.357,190.388 607.248,194.722 607.331,194.941 C607.487,195.356 607.59,195.167 607.979,195.218 C608.52,195.293 617.28,195.463 617.44,196.012 C617.227,196.978 617.262,197.944 617.262,198.926 C617.262,200.521 617.168,202.144 617.432,203.719 C617.14,204.132 607.274,203.089 606.888,203.847 C606.679,204.254 606.414,207.522 606.42,207.753 C606.438,208.431 606.728,208.411 607.315,208.455 C607.87,208.496 618.681,208.178 619.163,208.338 C619.457,208.986 619.216,221.569 619.007,221.827 C618.724,222.177 597.666,221.16 595.797,221.019 C595.305,220.984 594.891,220.958 594.699,220.441 C594.569,220.089 595.959,177.412 595.959,177.412 L596.029,177.274 L596.151,177.185 L596.272,177.098"/>
<path d="M569.156,190.479 C569.49,190.686 572.396,200.323 572.499,200.22 C572.849,199.871 576.336,191.974 576.729,191.496 C577.079,191.071 592.429,192.251 592.459,192.835 C592.478,193.161 582.94,207.694 583.361,208.735 C583.663,209.478 591.133,223.445 591.331,223.809 C591.514,224.149 591.779,224.542 591.514,224.927 C591.267,225.044 578.345,227.687 577.418,227.667 C577.027,227.403 576.857,226.948 576.652,226.545 C576.466,226.178 572.527,219.401 572.323,219.16 C571.978,218.753 571.91,219.008 571.754,219.413 C571.59,219.832 569.972,227 569.569,227.28 C568.961,227.211 552.7,225.613 552.565,225.498 C552.069,225.083 559.897,208.476 560.023,208.115 C560.189,207.625 553.492,193.604 552.899,192.476 C552.733,192.162 552.403,191.723 552.773,191.417 C552.976,191.251 569.156,190.479 569.156,190.479"/>
<path d="M625.297,193.406 C625.931,193.163 636.858,190.512 636.858,190.512 C637.21,191.332 636.698,212.026 636.892,212.05 C637.329,212.105 649.737,210.691 649.99,211.047 C650.156,211.284 649.433,225.593 649.008,226.543 C648.465,226.877 625.534,226.389 625.238,225.968 C625.165,217.11 625.147,194.481 625.297,193.406"/>
<path d="M529.012,178.439 L529.847,178.365 L530.883,178.315 L532.076,178.287 L533.378,178.278 L534.744,178.284 L536.127,178.304 L537.48,178.333 L538.758,178.37 L539.915,178.411 L540.904,178.453 L541.679,178.494 L542.193,178.531 L542.401,178.56 L542.542,178.8 L542.612,179.079 L542.636,179.184 L542.694,179.431 L542.782,179.812 L542.9,180.32 L543.046,180.947 L543.217,181.684 L543.412,182.524 L543.629,183.459 L543.867,184.481 L544.123,185.582 L544.395,186.755 L544.682,187.991 L544.982,189.282 L545.293,190.622 L545.613,192.001 L545.941,193.412 L546.274,194.847 L546.611,196.299 L546.949,197.759 L547.288,199.219 L547.625,200.672 L547.958,202.109 L548.286,203.524 L548.607,204.907 L548.918,206.251 L549.218,207.549 L549.506,208.792 L549.779,209.972 L550.035,211.082 L550.273,212.114 L550.491,213.059 L550.687,213.911 L550.86,214.661 L551.006,215.3 L551.125,215.822 L551.215,216.219 L551.274,216.482 L551.299,216.604 L551.072,216.678 L550.435,216.715 L549.464,216.72 L548.232,216.697 L546.813,216.653 L545.28,216.59 L543.707,216.516 L542.169,216.434 L540.738,216.349 L539.489,216.267 L538.496,216.193 L537.832,216.131 L537.572,216.086 L537.462,215.813 L537.416,215.511 L537.297,214.878 L537.048,213.609 L536.732,212.035 L536.412,210.487 L536.149,209.295 L536.006,208.792 L535.53,208.722 L534.414,208.64 L532.916,208.558 L531.29,208.488 L529.793,208.444 L528.68,208.439 L528.208,208.486 L527.93,209.133 L527.331,210.611 L526.617,212.389 L525.998,213.936 L525.679,214.723 L525.546,214.96 L525.308,215.081 L524.956,215.072 L524.113,215.025 L522.902,214.947 L521.446,214.849 L519.868,214.737 L518.291,214.621 L516.837,214.509 L515.629,214.409 L514.792,214.33 L514.446,214.279 L514.42,214.213 L514.45,214.138 L514.539,213.919 L514.683,213.563 L514.88,213.08 L515.125,212.477 L515.415,211.762 L515.748,210.943 L516.119,210.028 L516.527,209.026 L516.966,207.944 L517.435,206.791 L517.929,205.575 L518.446,204.303 L518.982,202.985 L519.535,201.627 L520.099,200.239 L520.674,198.827 L521.254,197.401 L521.837,195.968 L522.42,194.537 L522.999,193.115 L523.571,191.711 L524.133,190.332 L524.682,188.988 L525.213,187.685 L525.724,186.433 L526.212,185.238 L526.674,184.11 L527.105,183.056 L527.504,182.084 L527.865,181.203 L528.187,180.421 L528.466,179.745 L528.699,179.184 L528.882,178.746 L529.012,178.439 M531.233,198.871 L532.416,199.03 L534.627,199.099 L535.873,199.088 L535.754,198.41 L535.316,196.866 L534.751,195.045 L534.249,193.532 L534.004,192.916 L533.637,193.641 L532.94,195.109 L532.149,196.81 L531.501,198.234 L531.233,198.871"/>
<path d="M600.881,127.86 L632.083,159.059 L600.881,159.059 L600.881,127.86"/>
<path d="M596.232,169.338 C590.625,169.707 587.871,174.172 588.245,178.463 C588.336,179.512 588.189,180.705 588.174,181.776 C588.162,182.647 588.081,183.534 588.071,184.402 C584.527,184.192 580.899,183.665 577.282,183.769 C576.33,183.797 575.33,183.876 574.51,184.291 C573.92,184.589 573.947,184.344 573.459,184.028 C570.763,182.284 568.082,183.007 564.962,183.038 C563.263,183.054 561.534,183.264 559.835,183.297 C557.536,183.341 555.159,183.578 552.866,183.722 C552.425,183.75 552,183.801 551.595,183.878 C551.441,183.196 551.283,182.515 551.119,181.839 C550.69,180.077 550.353,178.25 549.845,176.515 C548.936,173.411 546.216,171.309 543.146,170.954 C541.628,170.778 540.075,170.823 538.54,170.705 L538.481,170.701 L538.481,127.86 L593.079,127.86 L593.079,166.856 L632.083,166.856 L632.083,183.811 C630.947,184.072 629.811,184.348 628.677,184.631 C628.656,184.528 628.636,184.427 628.618,184.325 C628.051,181.349 627.575,178.36 626.866,175.409 C626.121,172.305 623.513,170.076 619.629,169.928 C618.276,169.877 616.921,169.778 615.55,169.739 C609.65,169.569 603.729,169.434 597.789,169.434 C597.267,169.434 596.754,169.29 596.232,169.338"/>
<path d="M545.011,224.257 C544.813,225.674 544.92,227.108 545.52,228.624 C546.773,231.798 549.73,233.021 553.462,233.331 C556.414,233.578 559.369,234.005 562.327,234.25 C564.271,234.412 566.256,234.623 568.194,234.837 C569.941,235.03 571.553,234.934 573.104,234.216 C573.408,234.074 573.477,234.226 573.767,234.396 C576.66,236.074 579.076,235.159 582.126,234.651 C584.89,234.191 587.605,233.515 590.355,233.013 C592.127,232.689 593.992,232.344 595.537,231.48 C596.609,230.882 597.49,230.006 598.056,229.048 C598.277,228.675 598.366,228.847 598.838,228.851 C600.47,228.867 602.133,229.072 603.767,229.086 C607.209,229.119 610.707,229.487 614.161,229.487 C615.502,229.487 616.962,229.594 618.357,229.558 C619.301,231.443 621.01,232.755 622.942,233.3 C624.266,233.677 625.649,233.746 627.026,233.863 C627.597,233.912 628.185,233.904 628.756,233.944 C629.859,234.021 630.977,233.989 632.083,234.045 L632.083,255.776 L538.481,255.776 L538.481,223.85 C540.581,223.975 542.701,224.109 544.805,224.242 L545.011,224.257"/>
</g>
</svg>