<svg xmlns="http://www.w3.org/2000/svg" viewBox="0 0 120 70" width="120" height="70">
  <polygon points="108,35 18,10 18,60" fill="#4A90D9" stroke="#2C3E50" stroke-width="2"/>
  <polygon points="85,35 55,26 55,44" fill="#85C1E9" stroke="#2C3E50" stroke-width="1.5"/>
  <polygon points="40,14 14,5 18,25" fill="#E74C3C" stroke="#2C3E50" stroke-width="1.5"/>
  <polygon points="40,56 14,65 18,45" fill="#E74C3C" stroke="#2C3E50" stroke-width="1.5"/>
  <polygon points="28,12 22,8 14,14 18,28" fill="#E67E22" stroke="#2C3E50" stroke-width="1.2"/>
  <polygon points="28,58 22,62 14,56 18,42" fill="#E67E22" stroke="#2C3E50" stroke-width="1.2"/>
  <rect x="22" y="22" width="10" height="26" rx="2" fill="#7F8C8D" stroke="#2C3E50" stroke-width="1.5"/>
  <line x1="30" y1="12" x2="50" y2="22" stroke="#2C3E50" stroke-width="1.2" opacity="0.4"/>
  <line x1="30" y1="58" x2="50" y2="48" stroke="#2C3E50" stroke-width="1.2" opacity="0.4"/>
  <circle cx="62" cy="35" r="5" fill="#AED6F1"/>
  <circle cx="62" cy="35" r="3" fill="#2C3E50"/>
</svg>
