<svg xmlns="http://www.w3.org/2000/svg" viewBox="-64 -64 128 128" width="128" height="128">
  <path d="M30,-8 L40,0 L30,8 L-35,8 Q-40,0 -35,-8 Z" fill="#ffffff" fill-opacity="0.4" stroke="#ffffff" stroke-width="2.5"/>
  <rect x="-20" y="-14" width="30" height="28" rx="4" fill="#ffffff" fill-opacity="0.25" stroke="#ffffff" stroke-width="2"/>
  <rect x="-20" y="-14" width="30" height="6" rx="2" fill="#ffffff" fill-opacity="0.4" stroke="#ffffff" stroke-width="1.5"/>
  <path d="M40,-2 L50,0 L40,2" fill="none" stroke="#ffffff" stroke-width="3" opacity="0.9"/>
  <circle cx="48" cy="0" r="4" fill="none" stroke="#ffffff" stroke-width="2" opacity="0.8"/>
  <rect x="-42" y="-10" width="8" height="6" rx="2" fill="#ffffff" fill-opacity="0.5" stroke="#ffffff" stroke-width="1.5"/>
  <rect x="-42" y="4" width="8" height="6" rx="2" fill="#ffffff" fill-opacity="0.5" stroke="#ffffff" stroke-width="1.5"/>
  <path d="M5,-16 L15,-18 L20,-10" fill="#ffffff" fill-opacity="0.35" stroke="#ffffff" stroke-width="2" opacity="0.7"/>
  <line x1="45" y1="0" x2="55" y2="0" stroke="#ffffff" stroke-width="1.5" opacity="0.4" stroke-dasharray="3,3"/>
  <path d="M-10,8 L-5,16 L5,16 L10,8" fill="#ffffff" fill-opacity="0.2" stroke="#ffffff" stroke-width="1.5" opacity="0.6"/>
  <line x1="10" y1="-18" x2="10" y2="-28" stroke="#ffffff" stroke-width="1.5" opacity="0.6"/>
  <circle cx="10" cy="-30" r="2" fill="#ffffff" fill-opacity="0.7"/>
</svg>
