<svg xmlns="http://www.w3.org/2000/svg" viewBox="-64 -64 128 128" width="128" height="128">
  <polygon points="0,-40 -12,0 -6,30 0,35 6,30 12,0" fill="#ffffff" fill-opacity="0.35" stroke="#ffffff" stroke-width="2.5" opacity="0.9"/>
  <line x1="0" y1="-30" x2="-4" y2="0" stroke="#ffffff" stroke-width="1" opacity="0.4"/>
  <line x1="0" y1="-30" x2="4" y2="0" stroke="#ffffff" stroke-width="1" opacity="0.4"/>
  <polygon points="-25,-25 -35,5 -30,25 -22,28 -15,10" fill="#ffffff" fill-opacity="0.25" stroke="#ffffff" stroke-width="2" opacity="0.8"/>
  <polygon points="25,-20 32,10 28,25 20,28 15,8" fill="#ffffff" fill-opacity="0.25" stroke="#ffffff" stroke-width="2" opacity="0.8"/>
  <polygon points="-15,-10 -20,15 -12,18 -6,5" fill="#ffffff" fill-opacity="0.3" stroke="#ffffff" stroke-width="1.5" opacity="0.7"/>
  <polygon points="15,-8 18,12 12,15 8,5" fill="#ffffff" fill-opacity="0.3" stroke="#ffffff" stroke-width="1.5" opacity="0.7"/>
  <circle cx="-8" cy="32" r="3" fill="#ffffff" fill-opacity="0.3"/>
  <circle cx="8" cy="34" r="2.5" fill="#ffffff" fill-opacity="0.3"/>
  <circle cx="0" cy="38" r="2" fill="#ffffff" fill-opacity="0.25"/>
  <circle cx="-5" cy="-15" r="1.5" fill="#ffffff" fill-opacity="0.6"/>
  <circle cx="5" cy="-12" r="1.5" fill="#ffffff" fill-opacity="0.6"/>
  <circle cx="0" cy="-25" r="1.5" fill="#ffffff" fill-opacity="0.7"/>
</svg>
