<svg xmlns="http://www.w3.org/2000/svg" viewBox="-64 -64 128 128" width="128" height="128">
  <polygon points="0,-50 43,-25 43,25 0,50 -43,25 -43,-25" fill="none" stroke="#ffffff" stroke-width="4" opacity="0.9"/>
  <polygon points="0,-32 28,-16 28,16 0,32 -28,16 -28,-16" fill="#ffffff" fill-opacity="0.25" stroke="#ffffff" stroke-width="2.5" opacity="0.8"/>
  <rect x="-8" y="-45" width="16" height="50" rx="3" fill="#ffffff" fill-opacity="0.5" stroke="#ffffff" stroke-width="2"/>
  <rect x="-12" y="-48" width="24" height="6" rx="2" fill="#ffffff" fill-opacity="0.7" stroke="#ffffff" stroke-width="1.5"/>
  <rect x="-6" y="-42" width="12" height="4" rx="1" fill="#ffffff" fill-opacity="0.3"/>
  <line x1="-35" y1="-10" x2="35" y2="-10" stroke="#ffffff" stroke-width="2" opacity="0.6"/>
  <line x1="-35" y1="10" x2="35" y2="10" stroke="#ffffff" stroke-width="2" opacity="0.6"/>
  <line x1="-40" y1="30" x2="-25" y2="42" stroke="#ffffff" stroke-width="3" opacity="0.7"/>
  <line x1="40" y1="30" x2="25" y2="42" stroke="#ffffff" stroke-width="3" opacity="0.7"/>
  <circle cx="-18" cy="-20" r="3" fill="#ffffff" fill-opacity="0.4"/>
  <circle cx="18" cy="-20" r="3" fill="#ffffff" fill-opacity="0.4"/>
  <circle cx="0" cy="20" r="3" fill="#ffffff" fill-opacity="0.4"/>
</svg>
