<svg xmlns="http://www.w3.org/2000/svg" viewBox="-64 -64 128 128" width="128" height="128">
  <rect x="-50" y="-50" width="100" height="8" rx="2" fill="#ffffff" fill-opacity="0.8" stroke="#ffffff" stroke-width="2"/>
  <rect x="-48" y="-42" width="6" height="82" fill="#ffffff" fill-opacity="0.5" stroke="#ffffff" stroke-width="1.5"/>
  <rect x="42" y="-42" width="6" height="82" fill="#ffffff" fill-opacity="0.5" stroke="#ffffff" stroke-width="1.5"/>
  <rect x="-20" y="-42" width="40" height="6" rx="2" fill="#ffffff" fill-opacity="0.6" stroke="#ffffff" stroke-width="1.5"/>
  <line x1="0" y1="-36" x2="0" y2="-10" stroke="#ffffff" stroke-width="2" opacity="0.7"/>
  <path d="M-6,-10 Q0,-4 6,-10" fill="none" stroke="#ffffff" stroke-width="2.5" opacity="0.8"/>
  <rect x="-35" y="20" width="70" height="8" rx="3" fill="#ffffff" fill-opacity="0.4" stroke="#ffffff" stroke-width="1.5"/>
  <line x1="-25" y1="20" x2="-15" y2="36" stroke="#ffffff" stroke-width="2" opacity="0.5"/>
  <line x1="25" y1="20" x2="15" y2="36" stroke="#ffffff" stroke-width="2" opacity="0.5"/>
  <rect x="-15" y="-15" width="30" height="25" rx="4" fill="none" stroke="#ffffff" stroke-width="2" opacity="0.5"/>
  <path d="M-20,10 L-15,-5 L0,-15 L15,-5 L20,10 Z" fill="#ffffff" fill-opacity="0.15" stroke="#ffffff" stroke-width="2" opacity="0.6"/>
  <circle cx="-40" cy="-35" r="3" fill="#ffffff" fill-opacity="0.8"/>
  <circle cx="40" cy="-35" r="3" fill="#ffffff" fill-opacity="0.8"/>
  <line x1="-40" y1="-30" x2="-40" y2="-42" stroke="#ffffff" stroke-width="1.5" opacity="0.6"/>
  <line x1="40" y1="-30" x2="40" y2="-42" stroke="#ffffff" stroke-width="1.5" opacity="0.6"/>
</svg>
